<?xml version="1.0" encoding="utf-8"?>
<!-- Generator: Adobe Illustrator 21.0.0, SVG Export Plug-In . SVG Version: 6.00 Build 0)  -->
<svg version="1.0" id="Layer_1" xmlns="http://www.w3.org/2000/svg" xmlns:xlink="http://www.w3.org/1999/xlink" x="0px" y="0px"
	 viewBox="0 0 2000 1000" style="enable-background:new 0 0 2000 1000;" xml:space="preserve">
<style type="text/css">
	.st0{opacity:0.3;clip-path:url(#XMLID_2_);}
	.st1{opacity:0.3;clip-path:url(#XMLID_3_);}
	.st2{opacity:0.3;clip-path:url(#XMLID_4_);}
	.st3{opacity:0.3;clip-path:url(#XMLID_5_);}
	.st4{opacity:0.3;clip-path:url(#XMLID_6_);}
	.st5{fill:#103165;}
</style>
<g>
	<g>
		<g>
			<defs>
				<path id="XMLID_20_" d="M688.3,91.3C527.3,127.6,532,261.8,532,261.8s3.2-76.6,168.9-108.9c194.1-37.9,656.6,82.1,656.6,82.1
					C1218.6,178.1,849.3,55,688.3,91.3z"/>
			</defs>
			<use xlink:href="#XMLID_20_"  style="overflow:visible;fill:#28A9E0;"/>
			<clipPath id="XMLID_2_">
				<use xlink:href="#XMLID_20_"  style="overflow:visible;"/>
			</clipPath>
			<path class="st0" d="M685.1,135.5c-160.8,37.2-159.4,138.9-159.4,138.9s9.5-75.8,175.2-108.1c194.1-37.9,888.7,136.5,888.7,136.5
				C1450.6,246,876.1,91.3,685.1,135.5z"/>
		</g>
		<g>
			<defs>
				<path id="XMLID_19_" d="M554.1,293.3c-61.2,108.2,47.4,252.5,47.4,252.5c-33.1-140.5,22.2-193,42.6-214.5
					c129.4-135.7,748.2-72.8,748.2-72.8C923.5,160.8,623.9,169.8,554.1,293.3z"/>
			</defs>
			<use xlink:href="#XMLID_19_"  style="overflow:visible;fill:#006DBF;"/>
			<clipPath id="XMLID_3_">
				<use xlink:href="#XMLID_19_"  style="overflow:visible;"/>
			</clipPath>
			<path class="st1" d="M576.2,356.5c-52.3,112.8,63.7,245.4,63.7,245.4c-33.1-140.5-15.1-191.1,5.3-212.5
				C774.7,253.7,1404.1,261,1404.1,261C922.3,187.6,644.9,208.5,576.2,356.5z"/>
		</g>
		<g>
			<defs>
				<path id="XMLID_18_" d="M1103.6,283.5c106.9-12.1,193.9-16,193.9-16c-118.4-3.6-425.6,10.7-558.8,65.7
					c-65.8,27.2-106.5,71-110.1,126.7c-1.7,27.1,5.9,55.6,5.9,55.6C662.2,394.4,758,364.5,791.7,351
					c67.6-27.2,169.4-49.2,262.7-61.5c-4.8,18.1-25.3,108.3,19.4,173.9c45.8,67.1,131.8,62.7,131.8,62.7S1025.4,489.9,1103.6,283.5z
					"/>
			</defs>
			<use xlink:href="#XMLID_18_"  style="overflow:visible;fill:#2B4AAF;"/>
			<clipPath id="XMLID_4_">
				<use xlink:href="#XMLID_18_"  style="overflow:visible;"/>
			</clipPath>
			<path class="st2" d="M1071.8,286.2c106.9-12.1,226.9-17.6,226.9-17.6c-118.4-3.6-395.4,13.6-551.7,85.8
				c-64.7,29.9-100.6,78.9-109.7,130.2c-4.7,26.8-1.2,53.3-1.2,53.3c27.6-121.1,127.7-147.5,161.4-161
				c67.6-27.2,156.5-73.8,249.8-86c-4.8,18.1-21.5,132.5,27.6,194.9c45,57.2,130.6,40.2,130.6,40.2S1000.8,511.2,1071.8,286.2z"/>
		</g>
		<g>
			<defs>
				<path id="XMLID_17_" d="M1174.4,146.2l60.4,29.6c0,0,79.3-28.4,135,27.2C1369.8,203,1329.5,95.3,1174.4,146.2z"/>
			</defs>
			<use xlink:href="#XMLID_17_"  style="overflow:visible;fill:#2B4AAF;"/>
			<clipPath id="XMLID_5_">
				<use xlink:href="#XMLID_17_"  style="overflow:visible;"/>
			</clipPath>
			<path class="st3" d="M1187.1,177.3l63.9,22.5c0,0,79.3-28.4,135,27.2C1385.9,227.1,1337,116.6,1187.1,177.3z"/>
		</g>
		<g>
			<defs>
				<path id="XMLID_16_" d="M1464.5,242c-22.5-164.6-176.4-130.2-176.4-130.2c79.3,9.5,120.7,48.5,131.4,130.2
					c10.7,81.7-32,172.8-130.2,213.1c-98.3,40.2-162.2-34.3-162.2-34.3c23.7,49.7,80.5,74.6,148,74.6
					C1352,495.4,1487,406.6,1464.5,242z"/>
			</defs>
			<use xlink:href="#XMLID_16_"  style="overflow:visible;fill:#006DBF;"/>
			<clipPath id="XMLID_6_">
				<use xlink:href="#XMLID_16_"  style="overflow:visible;"/>
			</clipPath>
			<path class="st4" d="M1491.7,267.3c-13.4-114.4-102.6-142.8-102.6-142.8c31.6,28.4,53.7,65.5,54.5,126.3
				c1.1,82.4-44.2,199.7-137.3,223.3c-126.1,32.1-183.1-54.1-183.1-54.1c23.7,49.7,89.2,94.3,156.7,94.3
				C1356.7,514.3,1511,432.3,1491.7,267.3z"/>
		</g>
	</g>
	<g>
		<path class="st5" d="M96,640.2h27.9v209.3h107.6v25.9H96V640.2z"/>
		<path class="st5" d="M253.8,659.1c0-5.1,1.8-9.5,5.5-13.3c3.7-3.8,8.1-5.6,13.5-5.6c5.3,0,9.8,1.9,13.4,5.6
			c3.7,3.8,5.5,8.2,5.5,13.3c0,5.5-1.8,10.1-5.3,13.6c-3.5,3.5-8.1,5.3-13.6,5.3c-5.5,0-10.1-1.8-13.6-5.3
			C255.5,669.2,253.8,664.7,253.8,659.1z M259.7,719.9h25.9v155.5h-25.9V719.9z"/>
		<path class="st5" d="M335.8,624.3h25.9v118.3h0.7c7.1-8.4,15.3-14.9,24.7-19.6c9.4-4.7,19.8-7,31.1-7c12.2,0,23.3,2.1,33.4,6.1
			c10.1,4.1,18.7,9.8,25.7,17.1c7.1,7.3,12.6,15.9,16.6,25.9c4,10,6,20.8,6,32.6c0,11.7-2,22.6-6,32.6c-4,10-9.5,18.6-16.4,25.9
			c-7,7.3-15.2,13-24.7,17.1c-9.5,4.1-19.7,6.1-30.6,6.1c-13.9,0-26.2-3-36.7-9.1c-10.5-6.1-18.2-13.6-23.1-22.4h-0.7v27.6h-25.9
			V624.3z M361.7,797.7c0,8.2,1.3,15.8,3.8,22.8c2.5,7,6.3,13.1,11.1,18.3c4.9,5.2,10.7,9.3,17.4,12.3c6.8,3,14.3,4.5,22.8,4.5
			c8.4,0,16-1.5,22.8-4.5c6.8-3,12.6-7.1,17.4-12.3c4.9-5.2,8.6-11.3,11.1-18.3c2.5-7,3.8-14.6,3.8-22.8c0-8.2-1.3-15.8-3.8-22.8
			c-2.5-7-6.3-13.1-11.1-18.3c-4.9-5.2-10.7-9.3-17.4-12.3c-6.8-3-14.3-4.5-22.8-4.5c-8.4,0-16,1.5-22.8,4.5
			c-6.8,3-12.6,7.1-17.4,12.3c-4.9,5.2-8.6,11.3-11.1,18.3C363,781.9,361.7,789.5,361.7,797.7z"/>
		<path class="st5" d="M540.1,756.8c0-7.1-0.2-13.7-0.7-19.9s-0.7-11.8-0.7-16.9h24.6c0,4.2,0.1,8.4,0.3,12.6
			c0.2,4.2,0.3,8.5,0.3,13h0.7c1.8-3.8,4.3-7.4,7.5-11c3.2-3.5,7-6.7,11.5-9.5c4.4-2.8,9.4-5,14.9-6.6c5.5-1.7,11.5-2.5,17.9-2.5
			c1.8,0,3.5,0.1,5.3,0.3c1.8,0.2,3.5,0.7,5.3,1.3l-1.7,26.2c-4.4-1.3-9.1-2-14-2c-15.9,0-27.5,5.1-34.7,15.4
			c-7.2,10.3-10.8,24.4-10.8,42.4v75.7h-25.9V756.8z"/>
		<path class="st5" d="M789.9,847.2c-9.3,12-19.5,20.3-30.6,25.1c-11.1,4.8-23.9,7.1-38.5,7.1c-12.2,0-23.1-2.2-32.9-6.5
			c-9.7-4.3-18-10.1-24.7-17.4s-12-15.9-15.6-25.9c-3.7-10-5.5-20.6-5.5-31.9c0-12,2-23,6-33.1c4-10.1,9.5-18.7,16.6-25.9
			c7.1-7.2,15.5-12.8,25.2-16.8c9.7-4,20.4-6,31.9-6c10.8,0,20.8,1.8,29.9,5.5c9.1,3.7,16.9,9,23.4,15.9c6.5,7,11.6,15.5,15.1,25.6
			c3.5,10.1,5.3,21.5,5.3,34.4v8.3H670c0.4,6.6,2,13,4.8,19.1c2.8,6.1,6.4,11.4,10.8,15.9c4.4,4.5,9.6,8.1,15.6,10.8
			c6,2.7,12.5,4,19.6,4c11.3,0,20.8-2,28.6-6c7.7-4,14.7-9.8,20.9-17.6L789.9,847.2z M767.6,783.7c-0.4-13.3-4.8-23.9-13-31.9
			c-8.2-8-19.5-12-33.9-12c-14.4,0-26,4-34.9,12c-8.9,8-14.2,18.6-15.9,31.9H767.6z"/>
		<path class="st5" d="M840.4,640.2h60.1c11.3,0,22.5,0.7,33.7,2c11.2,1.3,21.2,4.2,30.1,8.6c8.9,4.4,16.1,10.9,21.6,19.4
			c5.5,8.5,8.3,20.1,8.3,34.7c0,17.3-5.2,31.2-15.6,41.9c-10.4,10.6-24.8,17.4-43.2,20.3l66.8,108.3h-34.2l-63.8-105.6h-35.9v105.6
			h-27.9V640.2z M868.3,743.9h24.9c7.7,0,15.8-0.2,24.1-0.7c8.3-0.4,15.9-1.9,22.9-4.3c7-2.4,12.7-6.3,17.3-11.5
			c4.5-5.2,6.8-12.7,6.8-22.4c0-8.4-1.7-15.2-5-20.3c-3.3-5.1-7.7-9-13.1-11.8c-5.4-2.8-11.5-4.6-18.3-5.5
			c-6.8-0.9-13.6-1.3-20.4-1.3h-39.2V743.9z"/>
		<path class="st5" d="M1177.5,847.2c-9.3,12-19.5,20.3-30.6,25.1c-11.1,4.8-23.9,7.1-38.5,7.1c-12.2,0-23.1-2.2-32.9-6.5
			c-9.7-4.3-18-10.1-24.7-17.4c-6.8-7.3-12-15.9-15.6-25.9c-3.7-10-5.5-20.6-5.5-31.9c0-12,2-23,6-33.1c4-10.1,9.5-18.7,16.6-25.9
			c7.1-7.2,15.5-12.8,25.2-16.8c9.7-4,20.4-6,31.9-6c10.8,0,20.8,1.8,29.9,5.5c9.1,3.7,16.9,9,23.4,15.9c6.5,7,11.6,15.5,15.1,25.6
			c3.5,10.1,5.3,21.5,5.3,34.4v8.3h-125.6c0.4,6.6,2,13,4.8,19.1c2.8,6.1,6.4,11.4,10.8,15.9c4.4,4.5,9.6,8.1,15.6,10.8
			c6,2.7,12.5,4,19.6,4c11.3,0,20.8-2,28.6-6c7.7-4,14.7-9.8,20.9-17.6L1177.5,847.2z M1155.3,783.7c-0.4-13.3-4.8-23.9-13-31.9
			c-8.2-8-19.5-12-33.9-12c-14.4,0-26,4-34.9,12c-8.9,8-14.2,18.6-15.9,31.9H1155.3z"/>
		<path class="st5" d="M1226.7,834.5c5.1,6.4,10.7,11.5,16.8,15.3c6.1,3.8,13.8,5.6,23.1,5.6c4,0,8-0.4,12.1-1.3
			c4.1-0.9,7.8-2.3,11.1-4.3c3.3-2,6-4.5,8-7.5c2-3,3-6.6,3-10.8c0-4.2-0.9-7.6-2.8-10.3c-1.9-2.7-4.4-4.9-7.5-6.8
			c-3.1-1.9-6.6-3.4-10.6-4.5c-4-1.1-8.1-2.1-12.3-3c-7.3-1.5-14.3-3.3-20.9-5.3c-6.6-2-12.5-4.6-17.4-7.8c-5-3.2-9-7.4-12-12.5
			c-3-5.1-4.5-11.6-4.5-19.6c0-7.5,1.7-14.2,5-19.9c3.3-5.8,7.7-10.5,13.3-14.3c5.5-3.8,11.7-6.6,18.6-8.6c6.9-2,13.9-3,21.3-3
			c11.1,0,21.3,2.2,30.7,6.6c9.4,4.4,16.8,11.6,22.1,21.6l-21.6,14.3c-3.3-5.5-7.7-10-13.1-13.5c-5.4-3.4-12-5.1-19.8-5.1
			c-3.5,0-7.1,0.4-10.8,1.3c-3.7,0.9-6.9,2.2-9.8,4c-2.9,1.8-5.3,4-7.1,6.8c-1.9,2.8-2.8,5.9-2.8,9.5c0,3.3,1,6.1,3.2,8.5
			c2.1,2.3,5,4.4,8.6,6.1c3.7,1.8,7.9,3.3,12.6,4.6c4.8,1.3,9.7,2.4,14.8,3.3c6.9,1.3,13.4,3,19.6,5.1c6.2,2.1,11.6,4.9,16.3,8.5
			c4.7,3.5,8.3,8,11,13.3s4,11.8,4,19.6c0,8.9-1.8,16.4-5.3,22.6c-3.5,6.2-8.3,11.2-14.1,15.1c-5.9,3.9-12.5,6.7-19.9,8.5
			c-7.4,1.8-15,2.7-22.8,2.7c-13.3,0-24.7-2.1-34.4-6.1c-9.6-4.1-18.3-11.7-26.1-22.8L1226.7,834.5z"/>
		<path class="st5" d="M1363.5,719.9h25.9v22.6h0.7c7.1-8.4,15.3-14.9,24.7-19.6c9.4-4.7,19.8-7,31.1-7c12.2,0,23.3,2.1,33.4,6.1
			c10.1,4.1,18.7,9.8,25.7,17.1c7.1,7.3,12.6,15.9,16.6,25.9c4,10,6,20.8,6,32.6c0,11.7-2,22.6-6,32.6c-4,10-9.5,18.6-16.4,25.9
			c-7,7.3-15.2,13-24.7,17.1c-9.5,4.1-19.7,6.1-30.6,6.1c-13.9,0-26.2-3-36.7-9.1c-10.5-6.1-18.2-13.6-23.1-22.4h-0.7v103.3h-25.9
			V719.9z M1389.4,797.7c0,8.2,1.3,15.8,3.8,22.8c2.5,7,6.3,13.1,11.1,18.3c4.9,5.2,10.7,9.3,17.4,12.3c6.8,3,14.3,4.5,22.8,4.5
			c8.4,0,16-1.5,22.8-4.5c6.8-3,12.6-7.1,17.4-12.3c4.9-5.2,8.6-11.3,11.1-18.3c2.5-7,3.8-14.6,3.8-22.8c0-8.2-1.3-15.8-3.8-22.8
			c-2.5-7-6.3-13.1-11.1-18.3c-4.9-5.2-10.7-9.3-17.4-12.3c-6.8-3-14.3-4.5-22.8-4.5c-8.4,0-16,1.5-22.8,4.5
			c-6.8,3-12.6,7.1-17.4,12.3c-4.9,5.2-8.6,11.3-11.1,18.3C1390.7,781.9,1389.4,789.5,1389.4,797.7z"/>
		<path class="st5" d="M1564.1,659.1c0-5.1,1.8-9.5,5.5-13.3c3.7-3.8,8.1-5.6,13.5-5.6c5.3,0,9.8,1.9,13.5,5.6
			c3.7,3.8,5.5,8.2,5.5,13.3c0,5.5-1.8,10.1-5.3,13.6c-3.5,3.5-8.1,5.3-13.6,5.3c-5.5,0-10.1-1.8-13.6-5.3
			C1565.9,669.2,1564.1,664.7,1564.1,659.1z M1570.1,719.9h25.9v155.5h-25.9V719.9z"/>
		<path class="st5" d="M1647.5,756.8c0-7.1-0.2-13.7-0.7-19.9c-0.4-6.2-0.7-11.8-0.7-16.9h24.6c0,4.2,0.1,8.4,0.3,12.6
			c0.2,4.2,0.3,8.5,0.3,13h0.7c1.8-3.8,4.3-7.4,7.5-11c3.2-3.5,7-6.7,11.5-9.5c4.4-2.8,9.4-5,14.9-6.6c5.5-1.7,11.5-2.5,17.9-2.5
			c1.8,0,3.5,0.1,5.3,0.3c1.8,0.2,3.5,0.7,5.3,1.3l-1.7,26.2c-4.4-1.3-9.1-2-13.9-2c-15.9,0-27.5,5.1-34.7,15.4
			c-7.2,10.3-10.8,24.4-10.8,42.4v75.7h-25.9V756.8z"/>
		<path class="st5" d="M1897.3,847.2c-9.3,12-19.5,20.3-30.6,25.1c-11.1,4.8-23.9,7.1-38.5,7.1c-12.2,0-23.1-2.2-32.9-6.5
			c-9.7-4.3-18-10.1-24.7-17.4c-6.8-7.3-12-15.9-15.6-25.9c-3.7-10-5.5-20.6-5.5-31.9c0-12,2-23,6-33.1c4-10.1,9.5-18.7,16.6-25.9
			c7.1-7.2,15.5-12.8,25.2-16.8c9.7-4,20.4-6,31.9-6c10.8,0,20.8,1.8,29.9,5.5c9.1,3.7,16.9,9,23.4,15.9c6.5,7,11.6,15.5,15.1,25.6
			c3.5,10.1,5.3,21.5,5.3,34.4v8.3h-125.6c0.4,6.6,2,13,4.8,19.1c2.8,6.1,6.4,11.4,10.8,15.9c4.4,4.5,9.6,8.1,15.6,10.8
			c6,2.7,12.5,4,19.6,4c11.3,0,20.8-2,28.6-6c7.7-4,14.7-9.8,20.9-17.6L1897.3,847.2z M1875.1,783.7c-0.4-13.3-4.8-23.9-13-31.9
			c-8.2-8-19.5-12-33.9-12c-14.4,0-26,4-34.9,12c-8.9,8-14.2,18.6-15.9,31.9H1875.1z"/>
	</g>
</g>
</svg>
